. 
 
http://www.torrenting.com          :     Once & For all ;)


               www . Torrenting . Com 

(((((((((((((= Enjoy No RAR releases =))))))))))))))))))))


...................................NFO:....................................

.                                                                                                     
       
     
     
       
       
     
     
                                         
                                         
                EXVID                    
                                         
         
                                         
         Filled the Archives             
                                         
         
                                         
                With:                    
                                         
         
                                         
                                    
     E240                           
                                    
     SP               (C) 2009      
                                         
     
     
     
                                                                                  
                                                                                   
        High.Heels.And.Low.Lifes.2001.iNTERNAL.DVDRip.XviD-EXViDiNT                 
                                                                                   
                                                                                  
     
                                                                                               
EXViD aims to iNTERNAL those releases which have been lost in the archives.
EXViD aims to PRE non-internal releases which have poor sources and are likely skipped by others. 
http://www.imdb.com/title/tt0253126/
Subtitles: EN, FR, CZ, HU, NL, GR, BG, AR, HR, SL
Date: 2010.12

Director:
Mel Smith

Genres:
Action | Drama | Comedy

Plot:
Two best girlfriends living in London suddenly find themselves battling wits with seasoned
criminals when they decide to blackmail the culprits of a bank heist in their neighborhood
rather than reporting the crime to the police. Refusing to be played by this new competition
and give up the demanded $2 million, the leaders of the gang of robbers (Kevin McNally and
Michael Gambon) decide to start playing dirty tricks, threaten violence and counterfeit money
in an effort to throw the two women (played by Minnie Driver and Mary McCormack) off course.
When the blackmail and counter attacks hurt an innocent bystander, thebest friends must
use their friendship to empower each other to lure the hardened criminals into a risky trap.

Cast:
Credited cast:
Minnie Driver  ...  Shannon  
Mary McCormack  ...  Frances  
Kevin McNally  ...  Mason  
Mark Williams  ...  Tremaine  
Danny Dyer  ...  Danny  
Michael Gambon  ...  Kerrigan  
Darren Boyd  ...  Ray  
Simon Scardifield  ...  Tony  
Len Collin  ...  Barry  
Jane Partridge  ...  Receptionist  
Jason Griffiths  ...  Paramedic  
Ranjit Krishnamma  ...  Doctor  
Mark Meadows  ...  Romantic actor  
Ben Walden  ...  Bloodied actor  
Michael Attwell  ...  Duty Sergeant (as Mike Attwell) 

Stats:
Format                           : AVI
Format/Info                      : Audio Video Interleave
File size                        : 699 MiB
Duration                         : 1h 22mn
Overall bit rate                 : 1 179 Kbps
Writing application              : VirtualDubMod 1.5.10.2 (build 2540/release)
Writing library                  : VirtualDubMod build 2540/release

Video
ID                               : 0
Format                           : MPEG-4 Visual
Format profile                   : Advanced Simple@L5
Format settings, BVOP            : Yes
Format settings, QPel            : No
Format settings, GMC             : No warppoints
Format settings, Matrix          : Default (H.263)
Muxing mode                      : Packed bitstream
Codec ID                         : XVID
Codec ID/Hint                    : XviD
Duration                         : 1h 22mn
Bit rate                         : 1 035 Kbps
Width                            : 640 pixels
Height                           : 352 pixels
Display aspect ratio             : 16:9
Frame rate                       : 25.000 fps
Color space                      : YUV
Chroma subsampling               : 4:2:0
Bit depth                        : 8 bits
Scan type                        : Progressive
Bits/(Pixel*Frame)               : 0.184
Stream size                      : 613 MiB (88%)
Writing library                  : XviD 1.2.1 (UTC 2008-12-04)

Audio
ID                               : 1
Format                           : MPEG Audio
Format version                   : Version 1
Format profile                   : Layer 3
Mode                             : Joint stereo
Mode extension                   : MS Stereo
Codec ID                         : 55
Codec ID/Hint                    : MP3
Duration                         : 1h 22mn
Bit rate mode                    : Variable
Bit rate                         : 128 Kbps
Channel(s)                       : 2 channels
Sampling rate                    : 48.0 KHz
Stream size                      : 77.9 MiB (11%)
Alignment                        : Aligned on interleaves
Interleave, duration             : 24 ms (0.60 video frame)
Interleave, preload duration     : 491 ms
Writing library                  : LAME3.90.
Encoding settings                : -m j -V 4 -q 2 -lowpass 17.6 --abr 128




Release notes:
Enjoy!

Looking for:
75TB+ Archives
DUTCH/FLEMiSH Archives
                                                                                                    
Greets: CRBS EPiSODE FiCO FLS iLS KLASSiGER LiPSYNC MADE NODLABS RUNNER TNAN       
   

                                                                    ASCII DONE BY XX^NFO 2oo9